0
SECTION
2
HEADER
9
$INSUNITS
70
4
9
$ACADVER
1
AC1014
9
$HANDSEED
5
FFFF
0
ENDSEC
0
SECTION
2
TABLES
0
TABLE
2
VPORT
5
8
100
AcDbSymbolTable
0
ENDTAB
0
TABLE
2
LTYPE
5
5
100
AcDbSymbolTable
0
LTYPE
5
14
100
AcDbSymbolTableRecord
100
AcDbLinetypeTableRecord
2
BYBLOCK
70
0
0
LTYPE
5
15
100
AcDbSymbolTableRecord
100
AcDbLinetypeTableRecord
2
BYLAYER
70
0
0
ENDTAB
0
TABLE
2
LAYER
5
2
100
AcDbSymbolTable
70
2
0
LAYER
5
50
100
AcDbSymbolTableRecord
100
AcDbLayerTableRecord
2
0
70
0
6
CONTINUOUS
0
ENDTAB
0
TABLE
2
STYLE
5
3
100
AcDbSymbolTable
70
1
0
STYLE
5
11
100
AcDbSymbolTableRecord
100
AcDbTextStyleTableRecord
2
STANDARD
70
0
0
ENDTAB
0
TABLE
2
VIEW
5
6
100
AcDbSymbolTable
70
0
0
ENDTAB
0
TABLE
2
UCS
5
7
100
AcDbSymbolTable
70
0
0
ENDTAB
0
TABLE
2
APPID
5
9
100
AcDbSymbolTable
70
2
0
APPID
5
12
100
AcDbSymbolTableRecord
100
AcDbRegAppTableRecord
2
ACAD
70
0
0
ENDTAB
0
TABLE
2
DIMSTYLE
5
A
100
AcDbSymbolTable
70
1
0
ENDTAB
0
TABLE
2
BLOCK_RECORD
5
1
100
AcDbSymbolTable
70
1
0
BLOCK_RECORD
5
1F
100
AcDbSymbolTableRecord
100
AcDbBlockTableRecord
2
*MODEL_SPACE
0
BLOCK_RECORD
5
1B
100
AcDbSymbolTableRecord
100
AcDbBlockTableRecord
2
*PAPER_SPACE
0
ENDTAB
0
ENDSEC
0
SECTION
2
BLOCKS
0
BLOCK
5
20
100
AcDbEntity
100
AcDbBlockBegin
2
*MODEL_SPACE
0
ENDBLK
5
21
100
AcDbEntity
100
AcDbBlockEnd
0
BLOCK
5
1C
100
AcDbEntity
100
AcDbBlockBegin
2
*PAPER_SPACE
0
ENDBLK
5
1D
100
AcDbEntity
100
AcDbBlockEnd
0
ENDSEC
0
SECTION
2
ENTITIES
0
LWPOLYLINE
5
100
100
AcDbEntity
8
OUTER_PROFILES
100
AcDbPolyline
90
24
70
1
43
0.0
10
-10.587075715908021
20
85.376638873758878
42
-0.41421356237309437
10
-8.5550757159080248
20
87.408638873758889
10
4.0639999999999699
20
87.408638873758889
42
0.99999999999999989
10
4.0639999999998278
20
89.440638873758886
10
-7.9936057773011271e-14
20
89.440638873758886
10
-7.1054273576010019e-14
20
102.92443887375896
10
524.65800000000047
20
102.92443887375903
10
524.65800000000047
20
89.440638873759042
10
520.59400000000051
20
89.440638873759028
42
0.99999999999999989
10
520.59400000000051
20
87.408638873759031
10
533.21307571590853
20
87.408638873759017
42
-0.41421356237309248
10
535.24507571590857
20
85.37663887375902
10
535.24507571590857
20
55.533041695406958
42
-0.41421356237309115
10
533.21307571590853
20
53.50104169540699
10
526.582118763003
20
53.50104169540699
42
1.4341597851059924
10
521.1891590206294
20
48.108081953033363
10
524.65800000000047
20
48.108081953033363
10
524.65800000000047
20
0
10
0
20
0
10
-4.4408920985006262e-15
20
48.108081953033306
10
3.4688409793645314
20
48.108081953037221
42
1.4341597851055385
10
-1.9241187630025536
20
53.501041695406983
10
-8.555075715908016
20
53.50104169540699
42
-0.41421356237309509
10
-10.587075715908068
20
55.533041695406986
0
LWPOLYLINE
5
101
100
AcDbEntity
8
INTERIOR_PROFILES
100
AcDbPolyline
90
4
70
1
43
0.0
10
26.800015136949462
20
73.610319794897379
10
22.02822302077336
20
73.610319794897379
42
-0.62532733508407312
10
22.028223020773353
20
83.41031979489739
10
26.800015136949462
20
83.41031979489739
42
-0.62532733508407323
0
LWPOLYLINE
5
102
100
AcDbEntity
8
INTERIOR_PROFILES
100
AcDbPolyline
90
4
70
1
43
0.0
10
490.490280921139
20
72.007919794897433
10
490.490280921139
20
85.012719794897436
10
509.99748092113896
20
85.012719794897436
10
509.99748092113896
20
72.007919794897433
0
LWPOLYLINE
5
103
100
AcDbEntity
8
INTERIOR_PROFILES
100
AcDbPolyline
90
4
70
1
43
0.0
10
478.21565790036544
20
73.610319794897435
10
473.44386578418943
20
73.610319794897435
42
-0.62532733508407323
10
473.44386578418943
20
83.410319794897433
10
478.21565790036544
20
83.410319794897433
42
-0.62532733508408145
0
CIRCLE
5
104
100
AcDbEntity
8
INTERIOR_PROFILES
100
AcDbCircle
10
-178.1118871642289
20
93.246777381066352
30
0
40
1.7018000000000022
210
0
220
0
230
-1
0
CIRCLE
5
105
100
AcDbEntity
8
INTERIOR_PROFILES
100
AcDbCircle
10
-514.9803385073044
20
93.246777381066408
30
0
40
1.7018000000000022
210
0
220
0
230
-1
0
CIRCLE
5
106
100
AcDbEntity
8
INTERIOR_PROFILES
100
AcDbCircle
10
-346.54611283576673
20
93.246777381066323
30
0
40
1.7018000000000022
210
0
220
0
230
-1
0
CIRCLE
5
107
100
AcDbEntity
8
INTERIOR_PROFILES
100
AcDbCircle
10
-9.6776614926910902
20
93.246777381066352
30
0
40
1.7018000000000022
210
0
220
0
230
-1
0
CIRCLE
5
108
100
AcDbEntity
8
INTERIOR_PROFILES
100
AcDbCircle
10
6.145937208601282
20
59.709862208729177
30
0
40
1.7018
210
0
220
0
230
-1
0
CIRCLE
5
109
100
AcDbEntity
8
INTERIOR_PROFILES
100
AcDbCircle
10
-530.80393720860161
20
59.709862208741228
30
0
40
1.70180000000002
210
0
220
0
230
-1
0
CIRCLE
5
110
100
AcDbEntity
8
INTERIOR_PROFILES
100
AcDbCircle
10
6.1459372086013175
20
76.47831979489743
30
0
40
1.7018
210
0
220
0
230
-1
0
CIRCLE
5
111
100
AcDbEntity
8
INTERIOR_PROFILES
100
AcDbCircle
10
-530.80393720860172
20
76.478319794909481
30
0
40
1.70180000000002
210
0
220
0
230
-1
0
LINE
5
112
100
AcDbEntity
8
BEND
100
AcDbLine
10
522.89213785795448
20
87.408638873759031
30
4.5044683189180815e-13
11
522.89213785795448
21
55.862062858081941
31
4.4795026336276925e-13
0
LINE
5
113
100
AcDbEntity
8
BEND
100
AcDbLine
10
1.7658621420459664
20
55.862062858081771
30
3.8878824513321355e-13
11
1.7658621420459664
21
87.408638873758889
31
3.8635761256955448e-13
0
LINE
5
114
100
AcDbEntity
8
BEND
100
AcDbLine
10
518.82813785795452
20
51.798062858081913
30
3.9988758694114786e-13
11
5.8298621420458829
21
51.798062858081849
31
4.1723655918296746e-13
0
LINE
5
115
100
AcDbEntity
8
BEND_EXTENT
100
AcDbLine
10
525.19027571590857
20
87.408638873759017
30
4.6629367034256615e-13
11
525.19027571590846
21
55.149877051297096
31
4.6684878185487873e-13
0
LINE
5
116
100
AcDbEntity
8
BEND_EXTENT
100
AcDbLine
10
519.54032366473939
20
49.499925000127902
30
3.7747582837255368e-13
11
5.1176763352610521
21
49.499925000127831
31
3.730349362740526e-13
0
LINE
5
117
100
AcDbEntity
8
BEND_EXTENT
100
AcDbLine
10
5.1176763352609766
20
54.096200716035874
30
4.3076653355456074e-13
11
519.54032366473928
21
54.096200716035938
31
4.2188474935755994e-13
0
LINE
5
118
100
AcDbEntity
8
BEND_EXTENT
100
AcDbLine
10
520.59400000000051
20
55.149877051297111
30
4.3076653355456119e-13
11
520.59400000000051
21
87.408638873759031
31
4.3076653355456119e-13
0
LINE
5
119
100
AcDbEntity
8
BEND_EXTENT
100
AcDbLine
10
-0.53227571590802825
20
55.149877051296968
30
5.0182080713057076e-13
11
-0.53227571590808598
21
87.408638873758875
31
5.0182080713057076e-13
0
LINE
5
120
100
AcDbEntity
8
BEND_EXTENT
100
AcDbLine
10
4.0639999999999699
20
87.408638873758889
30
4.3076653355456074e-13
11
4.0639999999999743
21
55.149877051296876
31
4.5297099404706387e-13
0
ENDSEC
0
SECTION
2
OBJECTS
0
DICTIONARY
5
C
100
AcDbDictionary
3
ACAD_GROUP
350
D
3
ACAD_MLINESTYLE
350
17
0
DICTIONARY
5
D
100
AcDbDictionary
0
DICTIONARY
5
1A
330
C
100
AcDbDictionary
0
DICTIONARY
5
17
100
AcDbDictionary
0
ENDSEC
0
EOF
