0
SECTION
2
HEADER
9
$INSUNITS
70
1
9
$ACADVER
1
AC1014
9
$HANDSEED
5
FFFF
0
ENDSEC
0
SECTION
2
TABLES
0
TABLE
2
VPORT
5
8
100
AcDbSymbolTable
0
ENDTAB
0
TABLE
2
LTYPE
5
5
100
AcDbSymbolTable
0
LTYPE
5
14
100
AcDbSymbolTableRecord
100
AcDbLinetypeTableRecord
2
BYBLOCK
70
0
0
LTYPE
5
15
100
AcDbSymbolTableRecord
100
AcDbLinetypeTableRecord
2
BYLAYER
70
0
0
ENDTAB
0
TABLE
2
LAYER
5
2
100
AcDbSymbolTable
70
2
0
LAYER
5
50
100
AcDbSymbolTableRecord
100
AcDbLayerTableRecord
2
0
70
0
6
CONTINUOUS
0
ENDTAB
0
TABLE
2
STYLE
5
3
100
AcDbSymbolTable
70
1
0
STYLE
5
11
100
AcDbSymbolTableRecord
100
AcDbTextStyleTableRecord
2
STANDARD
70
0
0
ENDTAB
0
TABLE
2
VIEW
5
6
100
AcDbSymbolTable
70
0
0
ENDTAB
0
TABLE
2
UCS
5
7
100
AcDbSymbolTable
70
0
0
ENDTAB
0
TABLE
2
APPID
5
9
100
AcDbSymbolTable
70
2
0
APPID
5
12
100
AcDbSymbolTableRecord
100
AcDbRegAppTableRecord
2
ACAD
70
0
0
ENDTAB
0
TABLE
2
DIMSTYLE
5
A
100
AcDbSymbolTable
70
1
0
ENDTAB
0
TABLE
2
BLOCK_RECORD
5
1
100
AcDbSymbolTable
70
1
0
BLOCK_RECORD
5
1F
100
AcDbSymbolTableRecord
100
AcDbBlockTableRecord
2
*MODEL_SPACE
0
BLOCK_RECORD
5
1B
100
AcDbSymbolTableRecord
100
AcDbBlockTableRecord
2
*PAPER_SPACE
0
ENDTAB
0
ENDSEC
0
SECTION
2
BLOCKS
0
BLOCK
5
20
100
AcDbEntity
100
AcDbBlockBegin
2
*MODEL_SPACE
0
ENDBLK
5
21
100
AcDbEntity
100
AcDbBlockEnd
0
BLOCK
5
1C
100
AcDbEntity
100
AcDbBlockBegin
2
*PAPER_SPACE
0
ENDBLK
5
1D
100
AcDbEntity
100
AcDbBlockEnd
0
ENDSEC
0
SECTION
2
ENTITIES
0
LWPOLYLINE
5
100
100
AcDbEntity
8
OUTER_PROFILES
100
AcDbPolyline
90
26
70
1
43
0.0
10
20.787691706856666
20
7.6492344586972818
10
20.51799576139944
20
7.6492344586972818
42
-1.3741737203989548
10
20.302689686663719
20
7.8645405334330079
10
20.302689686663712
20
8.1342364788902319
42
0.41421356237309509
10
20.222689686663713
20
8.214236478890232
10
2.8023109327087947e-15
20
8.2142364788902338
42
0.41421356237309509
10
-0.079999999999997198
20
8.1342364788902337
10
-0.079999999999998475
20
7.8645405334330087
42
-1.3741737203989302
10
-0.29530607473572229
20
7.6492344586972818
10
-0.56500202019295298
20
7.6492344586972818
42
0.41421356237309509
10
-0.64500202019295294
20
7.5692344586972826
10
-0.64500202019295294
20
0.6450020201929525
42
0.41421356237309509
10
-0.56500202019295298
20
0.56500202019295254
10
-0.29530607473573095
20
0.56500202019295298
42
-1.3741737203988953
10
-0.080000000000001098
20
0.34969594545722743
10
-0.080000000000000002
20
0.079999999999999544
42
0.41421356237309509
10
3.2782175923971161e-17
20
-4.2616828701162503e-16
10
20.222689686663713
20
-1.3987061727561026e-15
42
0.41421356237309293
10
20.302689686663715
20
0.079999999999998989
10
20.302689686663719
20
0.34969594545722199
42
-1.374173720398925
10
20.517995761399437
20
0.56500202019295309
10
20.787691706856666
20
0.56500202019295154
42
0.41421356237309281
10
20.867691706856665
20
0.64500202019295194
10
20.867691706856665
20
1.0104018699558577
42
-0.48356739312143737
10
20.867691706856665
20
1.4023233531567361
10
20.867691706856665
20
7.5692344586972826
42
0.41421356237308993
0
CIRCLE
5
101
100
AcDbEntity
8
INTERIOR_PROFILES
100
AcDbCircle
10
-0.16444175249300327
20
8.0393885061615808
30
0
40
0.066999999999999379
210
0
220
0
230
-1
0
CIRCLE
5
102
100
AcDbEntity
8
INTERIOR_PROFILES
100
AcDbCircle
10
-20.058247934170691
20
8.0393885061615808
30
0
40
0.066999999999999379
210
0
220
0
230
-1
0
CIRCLE
5
103
100
AcDbEntity
8
INTERIOR_PROFILES
100
AcDbCircle
10
-20.692843734127582
20
0.72944377268594929
30
0
40
0.067000000000000087
210
0
220
0
230
-1
0
CIRCLE
5
104
100
AcDbEntity
8
INTERIOR_PROFILES
100
AcDbCircle
10
-7.5908724023869754
20
5.051740564312289
30
0
40
0.066999999999999379
210
0
220
0
230
-1
0
CIRCLE
5
105
100
AcDbEntity
8
INTERIOR_PROFILES
100
AcDbCircle
10
-16.746384213410604
20
5.051740564312226
30
0
40
0.067000000000000781
210
0
220
0
230
-1
0
CIRCLE
5
106
100
AcDbEntity
8
INTERIOR_PROFILES
100
AcDbCircle
10
-6.9223684653791038
20
4.33402355866862
30
0
40
0.066999999999999379
210
0
220
0
230
-1
0
CIRCLE
5
107
100
AcDbEntity
8
INTERIOR_PROFILES
100
AcDbCircle
10
-6.9223684653791038
20
3.8340235586686204
30
0
40
0.066999999999999379
210
0
220
0
230
-1
0
CIRCLE
5
108
100
AcDbEntity
8
INTERIOR_PROFILES
100
AcDbCircle
10
-6.7957104797188137
20
0.17484797272863525
30
0
40
0.06699999999999999
210
0
220
0
230
-1
0
CIRCLE
5
109
100
AcDbEntity
8
INTERIOR_PROFILES
100
AcDbCircle
10
-6.7957104797189007
20
8.0393885061615808
30
0
40
0.066999999999999379
210
0
220
0
230
-1
0
CIRCLE
5
110
100
AcDbEntity
8
INTERIOR_PROFILES
100
AcDbCircle
10
-0.16444175249291657
20
0.17484797272863667
30
0
40
0.06699999999999999
210
0
220
0
230
-1
0
CIRCLE
5
111
100
AcDbEntity
8
INTERIOR_PROFILES
100
AcDbCircle
10
0.47015404746433964
20
4.1071182394450938
30
0
40
0.067000000000000087
210
0
220
0
230
-1
0
CIRCLE
5
112
100
AcDbEntity
8
INTERIOR_PROFILES
100
AcDbCircle
10
-16.746384213410604
20
2.079299619430333
30
0
40
0.067000000000000781
210
0
220
0
230
-1
0
CIRCLE
5
113
100
AcDbEntity
8
INTERIOR_PROFILES
100
AcDbCircle
10
-13.426979206944711
20
0.17484797272863387
30
0
40
0.06699999999999999
210
0
220
0
230
-1
0
CIRCLE
5
114
100
AcDbEntity
8
INTERIOR_PROFILES
100
AcDbCircle
10
-20.058247934170605
20
0.17484797272863667
30
0
40
0.06699999999999999
210
0
220
0
230
-1
0
CIRCLE
5
115
100
AcDbEntity
8
INTERIOR_PROFILES
100
AcDbCircle
10
-0.53260468585153276
20
5.0517405643123379
30
0
40
0.06699999999999999
210
0
220
0
230
-1
0
CIRCLE
5
116
100
AcDbEntity
8
INTERIOR_PROFILES
100
AcDbCircle
10
-20.692843734127578
20
4.107118239445092
30
0
40
0.067000000000000087
210
0
220
0
230
-1
0
CIRCLE
5
117
100
AcDbEntity
8
INTERIOR_PROFILES
100
AcDbCircle
10
-0.53260468585153276
20
2.0792996194304441
30
0
40
0.06699999999999999
210
0
220
0
230
-1
0
CIRCLE
5
118
100
AcDbEntity
8
INTERIOR_PROFILES
100
AcDbCircle
10
-20.692843734127575
20
7.484792706204245
30
0
40
0.066999999999999379
210
0
220
0
230
-1
0
CIRCLE
5
119
100
AcDbEntity
8
INTERIOR_PROFILES
100
AcDbCircle
10
-7.5908724023869754
20
2.0792996194303961
30
0
40
0.066999999999999379
210
0
220
0
230
-1
0
CIRCLE
5
120
100
AcDbEntity
8
INTERIOR_PROFILES
100
AcDbCircle
10
0.47015404746433964
20
0.72944377268595062
30
0
40
0.067000000000000087
210
0
220
0
230
-1
0
CIRCLE
5
121
100
AcDbEntity
8
INTERIOR_PROFILES
100
AcDbCircle
10
-14.5723684653791
20
3.83402355866862
30
0
40
0.067000000000000781
210
0
220
0
230
-1
0
CIRCLE
5
122
100
AcDbEntity
8
INTERIOR_PROFILES
100
AcDbCircle
10
-13.426979206944798
20
8.0393885061615826
30
0
40
0.066999999999999379
210
0
220
0
230
-1
0
CIRCLE
5
123
100
AcDbEntity
8
INTERIOR_PROFILES
100
AcDbCircle
10
0.47015404746433687
20
7.4847927062042467
30
0
40
0.066999999999999379
210
0
220
0
230
-1
0
CIRCLE
5
124
100
AcDbEntity
8
INTERIOR_PROFILES
100
AcDbCircle
10
-19.491266103174386
20
5.0517405643122073
30
0
40
0.067000000000000781
210
0
220
0
230
-1
0
CIRCLE
5
125
100
AcDbEntity
8
INTERIOR_PROFILES
100
AcDbCircle
10
-14.5723684653791
20
4.33402355866862
30
0
40
0.067000000000000781
210
0
220
0
230
-1
0
CIRCLE
5
126
100
AcDbEntity
8
INTERIOR_PROFILES
100
AcDbCircle
10
-14.094809410260995
20
5.0517405643122446
30
0
40
0.067000000000000781
210
0
220
0
230
-1
0
CIRCLE
5
127
100
AcDbEntity
8
INTERIOR_PROFILES
100
AcDbCircle
10
-19.491266103174386
20
2.0792996194303144
30
0
40
0.067000000000000781
210
0
220
0
230
-1
0
CIRCLE
5
128
100
AcDbEntity
8
INTERIOR_PROFILES
100
AcDbCircle
10
-14.094809410260995
20
2.0792996194303512
30
0
40
0.067000000000000781
210
0
220
0
230
-1
0
LINE
5
129
100
AcDbEntity
8
BEND
100
AcDbLine
10
20.375545834149381
20
7.5620906061829487
30
9.0743810528177839e-15
11
20.375545834149381
21
0.65214587270728486
31
1.1032020180551222e-14
0
LINE
5
130
100
AcDbEntity
8
BEND
100
AcDbLine
10
20.215545834149381
20
0.49214587270728294
30
8.7419135797253015e-15
11
0.007143852514326767
21
0.49214587270728294
31
8.7419135797253315e-15
0
LINE
5
131
100
AcDbEntity
8
BEND
100
AcDbLine
10
-0.15285614748566959
20
0.65214587270728208
30
9.6255684676548903e-15
11
-0.15285614748566959
21
7.5620906061829514
31
7.6834204202014952e-15
0
LINE
5
132
100
AcDbEntity
8
BEND
100
AcDbLine
10
0.0071438525143323614
20
7.7220906061829515
30
8.9167518513192114e-15
11
20.215545834149385
21
7.7220906061829515
31
8.741913579724541e-15
0
LINE
5
133
100
AcDbEntity
8
BEND_EXTENT
100
AcDbLine
10
20.229923193654884
20
0.42585826771653346
30
7.8677222217530828e-15
11
-0.007233506991174342
21
0.42585826771653346
31
7.8677222217530812e-15
0
LINE
5
134
100
AcDbEntity
8
BEND_EXTENT
100
AcDbLine
10
-0.21914375247641626
20
0.63776851320178518
30
6.613490748024596e-15
11
-0.21914375247641626
21
7.5764679656884528
31
7.023894436347405e-15
0
LINE
5
135
100
AcDbEntity
8
BEND_EXTENT
100
AcDbLine
10
-0.0072335069911659495
20
7.788378211173697
30
7.5180456785640546e-15
11
20.229923193654884
21
7.788378211173697
31
7.5180456785640546e-15
0
LINE
5
136
100
AcDbEntity
8
BEND_EXTENT
100
AcDbLine
10
20.44183343914013
20
7.5764679656884466
30
1.0797883710257886e-14
11
20.44183343914013
21
0.63776851320178241
31
1.0051580177387782e-14
0
LINE
5
137
100
AcDbEntity
8
BEND_EXTENT
100
AcDbLine
10
20.22992319365488
20
7.6558030011922051
30
9.6161049376982128e-15
11
-0.0072335069911659495
21
7.6558030011922051
31
9.616104937698205e-15
0
LINE
5
138
100
AcDbEntity
8
BEND_EXTENT
100
AcDbLine
10
-0.007233506991174342
20
0.55843347769802687
30
9.616104937698205e-15
11
20.229923193654884
21
0.55843347769802687
31
9.6161049376982128e-15
0
LINE
5
139
100
AcDbEntity
8
BEND_EXTENT
100
AcDbLine
10
20.30925822915864
20
0.63776851320178241
30
9.7909432092927254e-15
11
20.30925822915864
21
7.5764679656884466
31
9.7909432092927254e-15
0
LINE
5
140
100
AcDbEntity
8
BEND_EXTENT
100
AcDbLine
10
-0.086568542494922893
20
7.5764679656884493
30
9.616104937698205e-15
11
-0.086568542494922893
21
0.63776851320177963
31
9.616104937698205e-15
0
ENDSEC
0
SECTION
2
OBJECTS
0
DICTIONARY
5
C
100
AcDbDictionary
3
ACAD_GROUP
350
D
3
ACAD_MLINESTYLE
350
17
0
DICTIONARY
5
D
100
AcDbDictionary
0
DICTIONARY
5
1A
330
C
100
AcDbDictionary
0
DICTIONARY
5
17
100
AcDbDictionary
0
ENDSEC
0
EOF
